 <svg version="1.0" xmlns="http://www.w3.org/2000/svg"  width="300.000000pt" height="300.000000pt" viewBox="0 0 300.000000 300.000000"  preserveAspectRatio="xMidYMid meet">  <g transform="translate(0.000000,300.000000) scale(0.050000,-0.050000)" fill="#000000" stroke="none"> <path d="M2550 4381 c-33 -8 -114 -25 -181 -38 -714 -135 -1440 -636 -1713 -1181 -53 -106 -96 -212 -96 -237 0 -32 -15 -48 -55 -56 -207 -46 -274 -120 -274 -306 0 -139 63 -203 201 -203 l89 0 69 -151 c168 -370 596 -707 626 -494 5 36 -3 45 -40 45 -226 0 -658 569 -507 667 126 83 141 260 30 371 -88 88 -60 164 160 449 443 573 934 872 1627 991 355 61 453 67 737 42 1220 -106 2058 -714 2112 -1531 12 -195 -21 -463 -72 -576 -63 -138 -439 -536 -564 -597 -309 -150 -394 -181 -554 -208 -290 -47 -359 -39 -795 82 -760 212 -826 1070 -120 1562 52 37 56 46 32 75 -38 46 -70 42 -206 -31 -210 -112 -416 -416 -468 -691 -7 -36 -20 -65 -29 -65 -17 0 -108 139 -96 147 4 3 32 21 62 40 109 67 39 119 -85 63 -73 -33 -83 -33 -159 -3 -247 99 -557 -28 -788 -320 -72 -92 -112 -125 -191 -152 -127 -46 -173 -88 -139 -129 23 -28 47 -27 121 4 32 12 34 2 23 -114 -22 -233 143 -390 510 -485 282 -73 645 110 769 388 42 96 45 95 117 -35 18 -33 81 -98 140 -144 59 -46 137 -108 173 -137 248 -197 859 -293 1237 -195 1053 275 1552 1327 1016 2142 -96 147 -104 170 -60 170 148 0 307 348 225 493 -153 273 -572 238 -745 -63 -20 -34 -26 -33 -115 19 -505 296 -1583 505 -2024 392z m2692 -292 c130 -67 177 -233 97 -336 -55 -70 -206 -157 -245 -142 -55 21 -294 263 -294 298 0 181 246 282 442 180z m-4607 -1320 c106 -74 93 -188 -34 -295 -112 -95 -281 -58 -281 61 0 181 190 322 315 234z m1681 -353 c129 -99 201 -312 177 -520 -53 -457 -763 -605 -1021 -213 -232 355 504 994 844 733z"/> <path d="M1990 2087 c-168 -89 -200 -209 -88 -336 97 -110 202 -125 362 -51 91 43 156 270 101 352 -48 72 -267 92 -375 35z"/> <path d="M2104 3327 c-175 -87 -201 -302 -44 -367 93 -38 124 3 53 69 -153 142 74 326 262 211 125 -76 133 -215 15 -260 -58 -22 -68 -80 -13 -80 130 0 222 100 194 211 -52 209 -273 311 -467 216z"/> </g> </svg> 